<mxfile host="app.diagrams.net" modified="2024-01-08T18:32:30.693Z" agent="Mozilla/5.0 (X11; Ubuntu; Linux x86_64; rv:109.0) Gecko/20100101 Firefox/119.0" etag="IvC_8MSdfRJ3lhB6Fxi7" version="22.1.17" type="github">
  <diagram name="Page-1" id="HMk1L3ZVmhgXQnbdjf0Z">
    <mxGraphModel dx="1367" dy="2946" grid="1" gridSize="10" guides="1" tooltips="1" connect="1" arrows="1" fold="1" page="1" pageScale="1" pageWidth="850" pageHeight="1100" math="0" shadow="0">
      <root>
        <mxCell id="0" />
        <mxCell id="1" parent="0" />
        <mxCell id="uL2jTAdxlcE1hqd3arbY-60" value="&lt;div align=&quot;left&quot;&gt;&lt;font face=&quot;Georgia&quot;&gt;&lt;b&gt;&lt;font style=&quot;font-size: 14px;&quot;&gt;CLS - Cumulative Layout Shift (basically think of it like a score) A good example would be a site which has a header,an image and some text.&lt;/font&gt;&lt;/b&gt;&lt;br&gt;&lt;b&gt;&lt;font style=&quot;font-size: 14px;&quot;&gt;The text is underneath the image.Initially the image doesn&#39;t load.&lt;/font&gt;&lt;/b&gt;&lt;br&gt;&lt;b&gt;&lt;font style=&quot;font-size: 14px;&quot;&gt;But when it loads it causes the content below it to go down about 50% of the height of&amp;nbsp; the page.&lt;/font&gt;&lt;/b&gt;&lt;/font&gt;&lt;/div&gt;" style="text;html=1;strokeColor=none;fillColor=none;align=left;verticalAlign=middle;whiteSpace=wrap;rounded=0;" vertex="1" parent="1">
          <mxGeometry x="20" y="-1320" width="830" height="400" as="geometry" />
        </mxCell>
        <mxCell id="uL2jTAdxlcE1hqd3arbY-61" value="" style="rounded=0;whiteSpace=wrap;html=1;" vertex="1" parent="1">
          <mxGeometry x="20" y="-1050" width="340" height="340" as="geometry" />
        </mxCell>
        <mxCell id="uL2jTAdxlcE1hqd3arbY-63" value="" style="endArrow=classic;html=1;rounded=0;" edge="1" parent="1">
          <mxGeometry width="50" height="50" relative="1" as="geometry">
            <mxPoint x="360" y="-900" as="sourcePoint" />
            <mxPoint x="470" y="-900" as="targetPoint" />
          </mxGeometry>
        </mxCell>
        <mxCell id="uL2jTAdxlcE1hqd3arbY-64" value="" style="rounded=0;whiteSpace=wrap;html=1;" vertex="1" parent="1">
          <mxGeometry x="470" y="-1050" width="340" height="390" as="geometry" />
        </mxCell>
        <mxCell id="uL2jTAdxlcE1hqd3arbY-65" value="INITIALLY" style="rounded=0;whiteSpace=wrap;html=1;" vertex="1" parent="1">
          <mxGeometry x="20" y="-1050" width="340" height="60" as="geometry" />
        </mxCell>
        <mxCell id="uL2jTAdxlcE1hqd3arbY-66" value="AFTER CLS" style="rounded=0;whiteSpace=wrap;html=1;" vertex="1" parent="1">
          <mxGeometry x="470" y="-1050" width="340" height="60" as="geometry" />
        </mxCell>
        <mxCell id="uL2jTAdxlcE1hqd3arbY-68" value="&lt;h1&gt;&lt;br&gt;&lt;/h1&gt;&lt;p&gt;Lorem ipsum dolor sit amet, consectetur adipisicing elit, sed do eiusmod tempor incididunt ut labore et dolore magna aliqua.&lt;/p&gt;" style="text;html=1;strokeColor=none;fillColor=none;spacing=5;spacingTop=-20;whiteSpace=wrap;overflow=hidden;rounded=0;" vertex="1" parent="1">
          <mxGeometry x="20" y="-976" width="190" height="120" as="geometry" />
        </mxCell>
        <mxCell id="uL2jTAdxlcE1hqd3arbY-69" value="header" style="rounded=0;whiteSpace=wrap;html=1;" vertex="1" parent="1">
          <mxGeometry x="20" y="-990" width="340" height="60" as="geometry" />
        </mxCell>
        <mxCell id="uL2jTAdxlcE1hqd3arbY-70" value="header" style="rounded=0;whiteSpace=wrap;html=1;" vertex="1" parent="1">
          <mxGeometry x="470" y="-990" width="340" height="60" as="geometry" />
        </mxCell>
        <mxCell id="uL2jTAdxlcE1hqd3arbY-71" value="&lt;h1&gt;&lt;br&gt;&lt;/h1&gt;&lt;p&gt;Lorem ipsum dolor sit amet, consectetur adipisicing elit, sed do eiusmod tempor incididunt ut labore et dolore magna aliqua.&lt;/p&gt;" style="text;html=1;strokeColor=none;fillColor=none;spacing=5;spacingTop=-20;whiteSpace=wrap;overflow=hidden;rounded=0;" vertex="1" parent="1">
          <mxGeometry x="470" y="-780" width="190" height="120" as="geometry" />
        </mxCell>
        <mxCell id="uL2jTAdxlcE1hqd3arbY-72" value="IMAGE" style="rounded=0;whiteSpace=wrap;html=1;fillColor=#97D077;strokeColor=#82b366;" vertex="1" parent="1">
          <mxGeometry x="470" y="-930" width="340" height="200" as="geometry" />
        </mxCell>
        <mxCell id="uL2jTAdxlcE1hqd3arbY-74" value="" style="endArrow=classic;html=1;rounded=0;entryX=0.082;entryY=1.015;entryDx=0;entryDy=0;entryPerimeter=0;" edge="1" parent="1" target="uL2jTAdxlcE1hqd3arbY-72">
          <mxGeometry width="50" height="50" relative="1" as="geometry">
            <mxPoint x="550" y="-930" as="sourcePoint" />
            <mxPoint x="510" y="-760" as="targetPoint" />
          </mxGeometry>
        </mxCell>
        <mxCell id="uL2jTAdxlcE1hqd3arbY-75" value="&lt;div&gt;As you can see the text has shifted down from its original position.&lt;/div&gt;&lt;div&gt;That&#39;s because the request was processed later and the image showed up ,taking up 50% of the space.Basically a score of 0.5&lt;br&gt;&lt;/div&gt;" style="text;html=1;strokeColor=none;fillColor=none;align=center;verticalAlign=middle;whiteSpace=wrap;rounded=0;" vertex="1" parent="1">
          <mxGeometry x="890" y="-1000" width="60" height="30" as="geometry" />
        </mxCell>
        <mxCell id="uL2jTAdxlcE1hqd3arbY-76" value="&lt;div style=&quot;font-size: 24px;&quot;&gt;When you use next/font,nextjs will download all the necessary fonts from a CDN and everything will be available in the public folder.Basically this cuts the need for making subsequent requests for getting fonts.So whenever you build the application you will get all the necessary fonts&lt;/div&gt;&lt;div&gt;&lt;br&gt;&lt;/div&gt;" style="text;html=1;strokeColor=none;fillColor=none;align=center;verticalAlign=middle;whiteSpace=wrap;rounded=0;" vertex="1" parent="1">
          <mxGeometry x="50" y="-650" width="700" height="230" as="geometry" />
        </mxCell>
      </root>
    </mxGraphModel>
  </diagram>
</mxfile>
